<svg id="Layer_1" data-name="Layer 1" xmlns="http://www.w3.org/2000/svg" width="64" height="64" viewBox="0 0 64 64"><defs><style>.cls-1{fill:#666;}</style></defs><title>rupee</title><path class="cls-1" d="M31,60A27,27,0,1,0,4,33,27,27,0,0,0,31,60ZM31,8A25,25,0,1,1,6,33,25,25,0,0,1,31,8Z"/><path class="cls-1" d="M20,25a1,1,0,0,0,1,1H36.92A6.63,6.63,0,0,1,37,27a7,7,0,0,1-7,7H21a1,1,0,0,0-.7,1.71l16,16A1,1,0,0,0,37,52a1,1,0,0,0,.71-0.29,1,1,0,0,0,0-1.41L23.41,36H30a9,9,0,0,0,9-9,8.26,8.26,0,0,0-.06-1H41a1,1,0,0,0,0-2H38.47a9.06,9.06,0,0,0-2.83-4H41a1,1,0,0,0,0-2H21a1,1,0,0,0,0,2h9a7,7,0,0,1,6.31,4H21A1,1,0,0,0,20,25Z"/></svg>